<svg xmlns="http://www.w3.org/2000/svg" viewBox="0 0 1802 941">
<path d="M 424 894 L 427 894 Z" fill="#2ea7ff"/>
<path d="M 454 881  Z" fill="#2ea7ff"/>
<path d="M 1709 837  Z" fill="#2ea7ff"/>
<path d="M 1718 830  Z" fill="#2ea7ff"/>
<path d="M 1716 830  Z" fill="#2ea7ff"/>
<path d="M 453 826  Z" fill="#2ea7ff"/>
<path d="M 455 825  Z" fill="#2ea7ff"/>
<path d="M 447 820  Z" fill="#2ea7ff"/>
<path d="M 1672 819  Z" fill="#2ea7ff"/>
<path d="M 1680 816  Z" fill="#2ea7ff"/>
<path d="M 1546 812 L 1548 812 Z" fill="#2ea7ff"/>
<path d="M 1536 809  Z" fill="#2ea7ff"/>
<path d="M 1583 807  Z" fill="#2ea7ff"/>
<path d="M 1683 806  Z" fill="#2ea7ff"/>
<path d="M 1690 803  Z" fill="#2ea7ff"/>
<path d="M 1692 801  Z" fill="#2ea7ff"/>
<path d="M 1447 793 L 1448 795 Z" fill="#2ea7ff"/>
<path d="M 1727 792 L 1717 794 L 1714 797 L 1708 797 L 1693 807 L 1682 820 L 1671 827 L 1668 825 L 1666 829 L 1657 832 L 1655 835 L 1653 834 L 1648 842 L 1649 847 L 1674 842 L 1701 840 L 1710 835 L 1716 824 L 1718 824 L 1723 806 L 1728 798 Z" fill="#2ea7ff"/>
<path d="M 1714 791  Z" fill="#2ea7ff"/>
<path d="M 1417 789 L 1418 791 Z" fill="#2ea7ff"/>
<path d="M 1727 787  Z" fill="#2ea7ff"/>
<path d="M 1724 785  Z" fill="#2ea7ff"/>
<path d="M 1417 784  Z" fill="#2ea7ff"/>
<path d="M 1597 783  Z" fill="#2ea7ff"/>
<path d="M 1459 783  Z" fill="#2ea7ff"/>
<path d="M 1529 782 L 1531 783 Z" fill="#2ea7ff"/>
<path d="M 1523 781  Z" fill="#2ea7ff"/>
<path d="M 910 776  Z" fill="#2ea7ff"/>
<path d="M 1464 774  Z" fill="#2ea7ff"/>
<path d="M 880 774  Z" fill="#2ea7ff"/>
<path d="M 890 772  Z" fill="#2ea7ff"/>
<path d="M 1612 766  Z" fill="#2ea7ff"/>
<path d="M 1512 766  Z" fill="#2ea7ff"/>
<path d="M 938 764  Z" fill="#2ea7ff"/>
<path d="M 486 762  Z" fill="#2ea7ff"/>
<path d="M 1483 760  Z" fill="#2ea7ff"/>
<path d="M 1619 758  Z" fill="#2ea7ff"/>
<path d="M 1495 758  Z" fill="#2ea7ff"/>
<path d="M 493 755  Z" fill="#2ea7ff"/>
<path d="M 956 743  Z" fill="#2ea7ff"/>
<path d="M 1628 742  Z" fill="#2ea7ff"/>
<path d="M 526 734  Z" fill="#2ea7ff"/>
<path d="M 507 730  Z" fill="#2ea7ff"/>
<path d="M 1036 717  Z" fill="#2ea7ff"/>
<path d="M 1049 716  Z" fill="#2ea7ff"/>
<path d="M 1417 710  Z" fill="#2ea7ff"/>
<path d="M 1027 710  Z" fill="#2ea7ff"/>
<path d="M 982 709  Z" fill="#2ea7ff"/>
<path d="M 1025 707  Z" fill="#2ea7ff"/>
<path d="M 1420 704  Z" fill="#2ea7ff"/>
<path d="M 1417 704  Z" fill="#2ea7ff"/>
<path d="M 1424 700  Z" fill="#2ea7ff"/>
<path d="M 988 691 L 988 693 Z" fill="#2ea7ff"/>
<path d="M 1068 689  Z" fill="#2ea7ff"/>
<path d="M 543 689  Z" fill="#2ea7ff"/>
<path d="M 1424 688  Z" fill="#2ea7ff"/>
<path d="M 988 686  Z" fill="#2ea7ff"/>
<path d="M 1457 676  Z" fill="#2ea7ff"/>
<path d="M 1459 674  Z" fill="#2ea7ff"/>
<path d="M 1026 672  Z" fill="#2ea7ff"/>
<path d="M 1002 670  Z" fill="#2ea7ff"/>
<path d="M 1623 667  Z" fill="#2ea7ff"/>
<path d="M 996 663  Z" fill="#2ea7ff"/>
<path d="M 1628 657  Z" fill="#2ea7ff"/>
<path d="M 1577 653  Z" fill="#2ea7ff"/>
<path d="M 1483 650 L 1480 653 Z" fill="#2ea7ff"/>
<path d="M 1004 650  Z" fill="#2ea7ff"/>
<path d="M 1567 649  Z" fill="#2ea7ff"/>
<path d="M 1054 640  Z" fill="#2ea7ff"/>
<path d="M 1064 638 L 1054 642 L 1029 665 L 1031 677 L 1026 684 L 1024 698 L 1027 707 L 1036 715 L 1043 715 L 1050 710 L 1062 694 L 1064 657 L 1067 653 L 1066 647 L 1068 645 Z" fill="#2ea7ff"/>
<path d="M 344 638  Z" fill="#2ea7ff"/>
<path d="M 1528 636  Z" fill="#2ea7ff"/>
<path d="M 1063 636  Z" fill="#2ea7ff"/>
<path d="M 1021 634 L 1020 636 Z" fill="#2ea7ff"/>
<path d="M 1531 632  Z" fill="#2ea7ff"/>
<path d="M 1544 629  Z" fill="#2ea7ff"/>
<path d="M 1597 628 L 1591 624 L 1587 628 L 1583 637 L 1580 654 L 1574 661 L 1560 648 L 1560 645 L 1570 631 L 1569 627 L 1556 627 L 1531 637 L 1523 643 L 1503 642 L 1503 644 L 1484 652 L 1461 678 L 1436 689 L 1434 688 L 1431 693 L 1428 691 L 1431 693 L 1419 717 L 1413 742 L 1411 743 L 1413 771 L 1423 788 L 1422 791 L 1435 792 L 1443 789 L 1450 783 L 1451 785 L 1450 783 L 1472 764 L 1477 765 L 1475 763 L 1480 758 L 1491 754 L 1500 754 L 1508 758 L 1527 780 L 1529 779 L 1537 785 L 1537 796 L 1544 807 L 1560 812 L 1570 809 L 1580 802 L 1582 805 L 1580 802 L 1593 787 L 1595 780 L 1597 780 L 1596 778 L 1601 772 L 1605 773 L 1603 770 L 1610 763 L 1612 764 L 1619 755 L 1628 731 L 1628 688 L 1619 672 L 1621 669 L 1619 671 L 1614 661 L 1602 650 L 1600 634 Z" fill="#2ea7ff"/>
<path d="M 1573 624  Z" fill="#2ea7ff"/>
<path d="M 571 624  Z" fill="#2ea7ff"/>
<path d="M 1632 622  Z" fill="#2ea7ff"/>
<path d="M 1630 621 L 1632 620 Z" fill="#2ea7ff"/>
<path d="M 1638 616  Z" fill="#2ea7ff"/>
<path d="M 1577 612  Z" fill="#2ea7ff"/>
<path d="M 1633 608  Z" fill="#2ea7ff"/>
<path d="M 1631 607  Z" fill="#2ea7ff"/>
<path d="M 1568 603  Z" fill="#2ea7ff"/>
<path d="M 324 600  Z" fill="#2ea7ff"/>
<path d="M 1382 587  Z" fill="#2ea7ff"/>
<path d="M 1378 586 L 1378 588 Z" fill="#2ea7ff"/>
<path d="M 1629 585  Z" fill="#2ea7ff"/>
<path d="M 1631 584  Z" fill="#2ea7ff"/>
<path d="M 1447 582  Z" fill="#2ea7ff"/>
<path d="M 1626 581 L 1624 582 L 1625 585 Z" fill="#2ea7ff"/>
<path d="M 1545 580  Z" fill="#2ea7ff"/>
<path d="M 1441 580  Z" fill="#2ea7ff"/>
<path d="M 1615 578  Z" fill="#2ea7ff"/>
<path d="M 564 577  Z" fill="#2ea7ff"/>
<path d="M 1621 576  Z" fill="#2ea7ff"/>
<path d="M 1540 575  Z" fill="#2ea7ff"/>
<path d="M 1363 575  Z" fill="#2ea7ff"/>
<path d="M 559 574  Z" fill="#2ea7ff"/>
<path d="M 1604 571  Z" fill="#2ea7ff"/>
<path d="M 1411 569 L 1411 572 L 1413 571 Z" fill="#2ea7ff"/>
<path d="M 559 569  Z" fill="#2ea7ff"/>
<path d="M 553 568  Z" fill="#2ea7ff"/>
<path d="M 1547 558 L 1549 559 Z" fill="#2ea7ff"/>
<path d="M 1537 558 L 1537 564 L 1542 568 L 1545 578 L 1566 584 L 1575 593 L 1575 604 L 1579 610 L 1595 610 L 1606 606 L 1615 606 L 1622 618 L 1633 618 L 1635 615 L 1621 599 L 1628 594 L 1628 588 L 1616 585 L 1612 578 L 1604 573 L 1585 566 L 1585 564 L 1566 562 L 1565 565 L 1558 568 L 1552 566 L 1544 557 Z" fill="#2ea7ff"/>
<path d="M 1357 556  Z" fill="#2ea7ff"/>
<path d="M 1538 553  Z" fill="#2ea7ff"/>
<path d="M 507 552  Z" fill="#2ea7ff"/>
<path d="M 1455 551  Z" fill="#2ea7ff"/>
<path d="M 1034 551  Z" fill="#2ea7ff"/>
<path d="M 1345 540  Z" fill="#2ea7ff"/>
<path d="M 1328 537  Z" fill="#2ea7ff"/>
<path d="M 827 534  Z" fill="#2ea7ff"/>
<path d="M 1463 533  Z" fill="#2ea7ff"/>
<path d="M 1416 529  Z" fill="#2ea7ff"/>
<path d="M 1329 524  Z" fill="#2ea7ff"/>
<path d="M 1047 521  Z" fill="#2ea7ff"/>
<path d="M 1425 520  Z" fill="#2ea7ff"/>
<path d="M 326 520  Z" fill="#2ea7ff"/>
<path d="M 1350 517 L 1352 519 Z" fill="#2ea7ff"/>
<path d="M 1348 515  Z" fill="#2ea7ff"/>
<path d="M 1346 514  Z" fill="#2ea7ff"/>
<path d="M 333 513  Z" fill="#2ea7ff"/>
<path d="M 1354 507  Z" fill="#2ea7ff"/>
<path d="M 705 507  Z" fill="#2ea7ff"/>
<path d="M 1463 505  Z" fill="#2ea7ff"/>
<path d="M 1464 508 L 1459 505 L 1453 506 L 1444 515 L 1441 514 L 1441 518 L 1424 523 L 1418 533 L 1416 531 L 1411 535 L 1408 534 L 1410 535 L 1407 538 L 1407 543 L 1411 554 L 1411 561 L 1417 573 L 1436 578 L 1447 576 L 1451 555 L 1461 537 L 1462 526 L 1460 521 L 1465 514 Z" fill="#2ea7ff"/>
<path d="M 1461 504  Z" fill="#2ea7ff"/>
<path d="M 1372 503  Z" fill="#2ea7ff"/>
<path d="M 1447 502  Z" fill="#2ea7ff"/>
<path d="M 1060 502  Z" fill="#2ea7ff"/>
<path d="M 1347 501  Z" fill="#2ea7ff"/>
<path d="M 1467 499  Z" fill="#2ea7ff"/>
<path d="M 1460 498  Z" fill="#2ea7ff"/>
<path d="M 1396 494  Z" fill="#2ea7ff"/>
<path d="M 443 494  Z" fill="#2ea7ff"/>
<path d="M 1365 493  Z" fill="#2ea7ff"/>
<path d="M 1400 490  Z" fill="#2ea7ff"/>
<path d="M 1362 490  Z" fill="#2ea7ff"/>
<path d="M 1066 490  Z" fill="#2ea7ff"/>
<path d="M 1370 486  Z" fill="#2ea7ff"/>
<path d="M 283 486  Z" fill="#2ea7ff"/>
<path d="M 1372 485  Z" fill="#2ea7ff"/>
<path d="M 1358 484  Z" fill="#2ea7ff"/>
<path d="M 433 484  Z" fill="#2ea7ff"/>
<path d="M 281 484  Z" fill="#2ea7ff"/>
<path d="M 319 481  Z" fill="#2ea7ff"/>
<path d="M 337 480  Z" fill="#2ea7ff"/>
<path d="M 1238 479  Z" fill="#2ea7ff"/>
<path d="M 1361 478  Z" fill="#2ea7ff"/>
<path d="M 1048 478  Z" fill="#2ea7ff"/>
<path d="M 1360 476  Z" fill="#2ea7ff"/>
<path d="M 1053 474  Z" fill="#2ea7ff"/>
<path d="M 1356 469  Z" fill="#2ea7ff"/>
<path d="M 1353 468  Z" fill="#2ea7ff"/>
<path d="M 303 464  Z" fill="#2ea7ff"/>
<path d="M 242 463  Z" fill="#2ea7ff"/>
<path d="M 1063 461  Z" fill="#2ea7ff"/>
<path d="M 303 461  Z" fill="#2ea7ff"/>
<path d="M 238 457  Z" fill="#2ea7ff"/>
<path d="M 232 454  Z" fill="#2ea7ff"/>
<path d="M 1011 448  Z" fill="#2ea7ff"/>
<path d="M 1314 444  Z" fill="#2ea7ff"/>
<path d="M 1246 444  Z" fill="#2ea7ff"/>
<path d="M 293 443  Z" fill="#2ea7ff"/>
<path d="M 1399 442  Z" fill="#2ea7ff"/>
<path d="M 1392 441  Z" fill="#2ea7ff"/>
<path d="M 1254 439  Z" fill="#2ea7ff"/>
<path d="M 197 439  Z" fill="#2ea7ff"/>
<path d="M 1313 436  Z" fill="#2ea7ff"/>
<path d="M 1397 434  Z" fill="#2ea7ff"/>
<path d="M 1386 431 L 1387 433 Z" fill="#2ea7ff"/>
<path d="M 1105 431  Z" fill="#2ea7ff"/>
<path d="M 1306 427  Z" fill="#2ea7ff"/>
<path d="M 1305 424  Z" fill="#2ea7ff"/>
<path d="M 1002 420 L 1003 423 Z" fill="#2ea7ff"/>
<path d="M 246 419  Z" fill="#2ea7ff"/>
<path d="M 1114 416  Z" fill="#2ea7ff"/>
<path d="M 1271 414  Z" fill="#2ea7ff"/>
<path d="M 1183 412  Z" fill="#2ea7ff"/>
<path d="M 1187 410 L 1186 413 Z" fill="#2ea7ff"/>
<path d="M 1289 409  Z" fill="#2ea7ff"/>
<path d="M 992 407  Z" fill="#2ea7ff"/>
<path d="M 180 407  Z" fill="#2ea7ff"/>
<path d="M 1168 405 L 1169 407 Z" fill="#2ea7ff"/>
<path d="M 993 405  Z" fill="#2ea7ff"/>
<path d="M 1160 398  Z" fill="#2ea7ff"/>
<path d="M 988 398  Z" fill="#2ea7ff"/>
<path d="M 986 396  Z" fill="#2ea7ff"/>
<path d="M 1447 395  Z" fill="#2ea7ff"/>
<path d="M 167 392  Z" fill="#2ea7ff"/>
<path d="M 1153 391  Z" fill="#2ea7ff"/>
<path d="M 1108 385  Z" fill="#2ea7ff"/>
<path d="M 978 383 L 980 385 Z" fill="#2ea7ff"/>
<path d="M 154 383  Z" fill="#2ea7ff"/>
<path d="M 1460 382  Z" fill="#2ea7ff"/>
<path d="M 1096 379  Z" fill="#2ea7ff"/>
<path d="M 1073 373  Z" fill="#2ea7ff"/>
<path d="M 263 373  Z" fill="#2ea7ff"/>
<path d="M 312 372  Z" fill="#2ea7ff"/>
<path d="M 714 368 L 712 369 Z" fill="#2ea7ff"/>
<path d="M 358 341  Z" fill="#2ea7ff"/>
<path d="M 955 338  Z" fill="#2ea7ff"/>
<path d="M 881 338  Z" fill="#2ea7ff"/>
<path d="M 856 337  Z" fill="#2ea7ff"/>
<path d="M 960 336  Z" fill="#2ea7ff"/>
<path d="M 366 334  Z" fill="#2ea7ff"/>
<path d="M 1453 333  Z" fill="#2ea7ff"/>
<path d="M 365 332  Z" fill="#2ea7ff"/>
<path d="M 1472 330  Z" fill="#2ea7ff"/>
<path d="M 1475 328  Z" fill="#2ea7ff"/>
<path d="M 120 320  Z" fill="#2ea7ff"/>
<path d="M 969 319  Z" fill="#2ea7ff"/>
<path d="M 852 319  Z" fill="#2ea7ff"/>
<path d="M 1456 318  Z" fill="#2ea7ff"/>
<path d="M 1443 318  Z" fill="#2ea7ff"/>
<path d="M 1438 318 L 1440 319 Z" fill="#2ea7ff"/>
<path d="M 961 316  Z" fill="#2ea7ff"/>
<path d="M 1459 315 L 1460 317 Z" fill="#2ea7ff"/>
<path d="M 1444 312  Z" fill="#2ea7ff"/>
<path d="M 759 312 L 757 313 Z" fill="#2ea7ff"/>
<path d="M 379 311  Z" fill="#2ea7ff"/>
<path d="M 862 310  Z" fill="#2ea7ff"/>
<path d="M 855 310 L 857 311 Z" fill="#2ea7ff"/>
<path d="M 767 309  Z" fill="#2ea7ff"/>
<path d="M 861 308  Z" fill="#2ea7ff"/>
<path d="M 857 308 L 859 309 Z" fill="#2ea7ff"/>
<path d="M 848 307 L 847 309 Z" fill="#2ea7ff"/>
<path d="M 775 306 L 777 306 Z" fill="#2ea7ff"/>
<path d="M 844 304  Z" fill="#2ea7ff"/>
<path d="M 836 304  Z" fill="#2ea7ff"/>
<path d="M 891 302  Z" fill="#2ea7ff"/>
<path d="M 1444 301  Z" fill="#2ea7ff"/>
<path d="M 1425 300  Z" fill="#2ea7ff"/>
<path d="M 889 297  Z" fill="#2ea7ff"/>
<path d="M 1421 294  Z" fill="#2ea7ff"/>
<path d="M 399 294  Z" fill="#2ea7ff"/>
<path d="M 1471 292  Z" fill="#2ea7ff"/>
<path d="M 1468 292  Z" fill="#2ea7ff"/>
<path d="M 1420 292  Z" fill="#2ea7ff"/>
<path d="M 730 292 L 731 294 Z" fill="#2ea7ff"/>
<path d="M 911 291  Z" fill="#2ea7ff"/>
<path d="M 877 290 L 877 292 Z" fill="#2ea7ff"/>
<path d="M 885 289  Z" fill="#2ea7ff"/>
<path d="M 929 287  Z" fill="#2ea7ff"/>
<path d="M 932 285  Z" fill="#2ea7ff"/>
<path d="M 880 284 L 878 284 Z" fill="#2ea7ff"/>
<path d="M 848 282  Z" fill="#2ea7ff"/>
<path d="M 832 278  Z" fill="#2ea7ff"/>
<path d="M 875 277  Z" fill="#2ea7ff"/>
<path d="M 877 276 L 879 277 Z" fill="#2ea7ff"/>
<path d="M 868 274 L 866 275 Z" fill="#2ea7ff"/>
<path d="M 836 273  Z" fill="#2ea7ff"/>
<path d="M 822 271  Z" fill="#2ea7ff"/>
<path d="M 820 269 L 822 269 Z" fill="#2ea7ff"/>
<path d="M 861 268  Z" fill="#2ea7ff"/>
<path d="M 862 266  Z" fill="#2ea7ff"/>
<path d="M 462 264  Z" fill="#2ea7ff"/>
<path d="M 858 261 L 857 263 Z" fill="#2ea7ff"/>
<path d="M 462 259  Z" fill="#2ea7ff"/>
<path d="M 977 258  Z" fill="#2ea7ff"/>
<path d="M 853 258  Z" fill="#2ea7ff"/>
<path d="M 771 256  Z" fill="#2ea7ff"/>
<path d="M 1496 255  Z" fill="#2ea7ff"/>
<path d="M 952 255  Z" fill="#2ea7ff"/>
<path d="M 942 255  Z" fill="#2ea7ff"/>
<path d="M 945 253  Z" fill="#2ea7ff"/>
<path d="M 761 244  Z" fill="#2ea7ff"/>
<path d="M 455 234 L 454 236 Z" fill="#2ea7ff"/>
<path d="M 1492 224  Z" fill="#2ea7ff"/>
<path d="M 755 214  Z" fill="#2ea7ff"/>
<path d="M 1555 213 L 1557 213 Z" fill="#2ea7ff"/>
<path d="M 1552 213  Z" fill="#2ea7ff"/>
<path d="M 736 210  Z" fill="#2ea7ff"/>
<path d="M 762 208  Z" fill="#2ea7ff"/>
<path d="M 1543 205  Z" fill="#2ea7ff"/>
<path d="M 738 203  Z" fill="#2ea7ff"/>
<path d="M 796 201  Z" fill="#2ea7ff"/>
<path d="M 792 200  Z" fill="#2ea7ff"/>
<path d="M 1480 198 L 1483 200 Z" fill="#2ea7ff"/>
<path d="M 1454 198 L 1456 199 Z" fill="#2ea7ff"/>
<path d="M 1445 197 L 1447 198 Z" fill="#2ea7ff"/>
<path d="M 816 196  Z" fill="#2ea7ff"/>
<path d="M 798 195  Z" fill="#2ea7ff"/>
<path d="M 760 194  Z" fill="#2ea7ff"/>
<path d="M 1443 193  Z" fill="#2ea7ff"/>
<path d="M 787 193  Z" fill="#2ea7ff"/>
<path d="M 821 192  Z" fill="#2ea7ff"/>
<path d="M 791 192  Z" fill="#2ea7ff"/>
<path d="M 755 192 L 742 200 L 742 206 L 738 215 L 740 213 L 751 214 L 755 204 L 759 203 L 758 195 Z" fill="#2ea7ff"/>
<path d="M 390 187  Z" fill="#2ea7ff"/>
<path d="M 388 186  Z" fill="#2ea7ff"/>
<path d="M 1561 184  Z" fill="#2ea7ff"/>
<path d="M 1446 184  Z" fill="#2ea7ff"/>
<path d="M 844 184  Z" fill="#2ea7ff"/>
<path d="M 389 184  Z" fill="#2ea7ff"/>
<path d="M 46 182  Z" fill="#2ea7ff"/>
<path d="M 1447 180  Z" fill="#2ea7ff"/>
<path d="M 836 180  Z" fill="#2ea7ff"/>
<path d="M 1451 179  Z" fill="#2ea7ff"/>
<path d="M 883 177  Z" fill="#2ea7ff"/>
<path d="M 781 176  Z" fill="#2ea7ff"/>
<path d="M 1454 175  Z" fill="#2ea7ff"/>
<path d="M 1502 174  Z" fill="#2ea7ff"/>
<path d="M 839 174  Z" fill="#2ea7ff"/>
<path d="M 779 174  Z" fill="#2ea7ff"/>
<path d="M 1452 173  Z" fill="#2ea7ff"/>
<path d="M 367 172  Z" fill="#2ea7ff"/>
<path d="M 142 172  Z" fill="#2ea7ff"/>
<path d="M 1525 171  Z" fill="#2ea7ff"/>
<path d="M 891 171  Z" fill="#2ea7ff"/>
<path d="M 760 173 L 758 181 L 763 189 L 763 196 L 769 201 L 768 203 L 772 203 L 765 208 L 765 215 L 768 217 L 764 219 L 761 225 L 768 226 L 788 219 L 793 221 L 790 219 L 794 216 L 796 209 L 789 203 L 789 197 L 787 198 L 779 190 L 779 186 L 782 183 L 781 178 L 775 171 Z" fill="#2ea7ff"/>
<path d="M 1578 170 L 1581 172 Z" fill="#2ea7ff"/>
<path d="M 895 168  Z" fill="#2ea7ff"/>
<path d="M 753 167  Z" fill="#2ea7ff"/>
<path d="M 904 166  Z" fill="#2ea7ff"/>
<path d="M 890 166  Z" fill="#2ea7ff"/>
<path d="M 591 165  Z" fill="#2ea7ff"/>
<path d="M 1582 164 L 1580 165 Z" fill="#2ea7ff"/>
<path d="M 894 164  Z" fill="#2ea7ff"/>
<path d="M 772 164  Z" fill="#2ea7ff"/>
<path d="M 904 162  Z" fill="#2ea7ff"/>
<path d="M 1591 159  Z" fill="#2ea7ff"/>
<path d="M 880 159  Z" fill="#2ea7ff"/>
<path d="M 1596 158  Z" fill="#2ea7ff"/>
<path d="M 1585 157  Z" fill="#2ea7ff"/>
<path d="M 1593 155  Z" fill="#2ea7ff"/>
<path d="M 880 155  Z" fill="#2ea7ff"/>
<path d="M 883 153  Z" fill="#2ea7ff"/>
<path d="M 882 151  Z" fill="#2ea7ff"/>
<path d="M 615 145  Z" fill="#2ea7ff"/>
<path d="M 38 145  Z" fill="#2ea7ff"/>
<path d="M 1595 142 L 1595 145 Z" fill="#2ea7ff"/>
<path d="M 824 140  Z" fill="#2ea7ff"/>
<path d="M 1590 138  Z" fill="#2ea7ff"/>
<path d="M 826 139 L 829 138 Z" fill="#2ea7ff"/>
<path d="M 1610 137 L 1612 137 Z" fill="#2ea7ff"/>
<path d="M 661 133  Z" fill="#2ea7ff"/>
<path d="M 663 132  Z" fill="#2ea7ff"/>
<path d="M 1585 131  Z" fill="#2ea7ff"/>
<path d="M 957 130 L 955 132 Z" fill="#2ea7ff"/>
<path d="M 968 129  Z" fill="#2ea7ff"/>
<path d="M 945 128  Z" fill="#2ea7ff"/>
<path d="M 687 125  Z" fill="#2ea7ff"/>
<path d="M 694 124  Z" fill="#2ea7ff"/>
<path d="M 1606 119  Z" fill="#2ea7ff"/>
<path d="M 987 117  Z" fill="#2ea7ff"/>
<path d="M 1105 115  Z" fill="#2ea7ff"/>
<path d="M 1108 114  Z" fill="#2ea7ff"/>
<path d="M 864 114 L 866 115 Z" fill="#2ea7ff"/>
<path d="M 965 112  Z" fill="#2ea7ff"/>
<path d="M 576 112  Z" fill="#2ea7ff"/>
<path d="M 431 110  Z" fill="#2ea7ff"/>
<path d="M 888 108  Z" fill="#2ea7ff"/>
<path d="M 881 105  Z" fill="#2ea7ff"/>
<path d="M 703 105  Z" fill="#2ea7ff"/>
<path d="M 471 104 L 473 105 Z" fill="#2ea7ff"/>
<path d="M 708 102  Z" fill="#2ea7ff"/>
<path d="M 711 101  Z" fill="#2ea7ff"/>
<path d="M 710 99  Z" fill="#2ea7ff"/>
<path d="M 1094 97  Z" fill="#2ea7ff"/>
<path d="M 568 96  Z" fill="#2ea7ff"/>
<path d="M 430 94  Z" fill="#2ea7ff"/>
<path d="M 288 93  Z" fill="#2ea7ff"/>
<path d="M 1322 92  Z" fill="#2ea7ff"/>
<path d="M 718 91  Z" fill="#2ea7ff"/>
<path d="M 1317 89  Z" fill="#2ea7ff"/>
<path d="M 1126 89 L 1128 88 Z" fill="#2ea7ff"/>
<path d="M 517 88  Z" fill="#2ea7ff"/>
<path d="M 1118 87  Z" fill="#2ea7ff"/>
<path d="M 723 87  Z" fill="#2ea7ff"/>
<path d="M 357 86 L 359 87 Z" fill="#2ea7ff"/>
<path d="M 289 86  Z" fill="#2ea7ff"/>
<path d="M 725 85  Z" fill="#2ea7ff"/>
<path d="M 302 83  Z" fill="#2ea7ff"/>
<path d="M 1079 82  Z" fill="#2ea7ff"/>
<path d="M 360 82  Z" fill="#2ea7ff"/>
<path d="M 350 81  Z" fill="#2ea7ff"/>
<path d="M 454 76  Z" fill="#2ea7ff"/>
<path d="M 1242 74  Z" fill="#2ea7ff"/>
<path d="M 1181 72  Z" fill="#2ea7ff"/>
<path d="M 1611 128 L 1598 123 L 1539 109 L 1474 107 L 1418 101 L 1417 99 L 1403 99 L 1385 95 L 1362 95 L 1358 99 L 1332 99 L 1317 91 L 1300 88 L 1272 88 L 1228 93 L 1227 89 L 1238 79 L 1241 79 L 1238 79 L 1239 75 L 1233 72 L 1214 70 L 1193 71 L 1170 77 L 1134 82 L 1132 80 L 1134 82 L 1129 91 L 1107 95 L 1102 99 L 1103 105 L 1119 111 L 1118 114 L 1110 119 L 1105 120 L 1103 115 L 1098 112 L 1099 110 L 1096 110 L 1091 97 L 1084 89 L 1076 89 L 1074 97 L 1081 108 L 1080 113 L 1073 111 L 1075 110 L 1066 111 L 1056 106 L 1052 107 L 1050 104 L 1047 105 L 1047 102 L 1040 103 L 1040 109 L 1045 111 L 1042 113 L 1016 113 L 985 121 L 985 126 L 982 129 L 974 129 L 968 134 L 958 135 L 959 139 L 956 141 L 949 137 L 941 128 L 946 123 L 961 122 L 964 119 L 963 114 L 954 109 L 927 105 L 906 105 L 865 118 L 854 131 L 851 130 L 853 131 L 851 133 L 831 139 L 821 146 L 817 155 L 817 161 L 822 170 L 820 171 L 821 173 L 823 171 L 828 174 L 835 173 L 840 168 L 843 174 L 842 179 L 844 178 L 848 184 L 861 184 L 874 168 L 871 154 L 877 149 L 881 149 L 880 147 L 891 139 L 891 143 L 888 146 L 886 145 L 885 159 L 891 162 L 912 160 L 914 163 L 891 173 L 887 180 L 887 188 L 882 193 L 872 190 L 856 190 L 855 193 L 849 193 L 845 190 L 846 188 L 837 183 L 826 186 L 821 197 L 818 200 L 814 199 L 817 200 L 807 206 L 792 225 L 778 227 L 777 234 L 762 233 L 759 236 L 760 241 L 771 246 L 772 249 L 774 248 L 780 258 L 772 267 L 737 266 L 735 269 L 736 288 L 733 290 L 735 305 L 738 307 L 736 309 L 738 307 L 757 309 L 773 304 L 782 294 L 783 296 L 782 293 L 786 291 L 790 283 L 801 272 L 809 275 L 827 261 L 834 262 L 839 273 L 855 282 L 861 289 L 861 295 L 856 301 L 856 305 L 861 306 L 874 295 L 875 288 L 856 265 L 851 262 L 850 256 L 857 257 L 865 267 L 888 281 L 889 294 L 894 301 L 904 304 L 908 301 L 907 290 L 912 286 L 930 285 L 934 278 L 935 257 L 938 254 L 943 253 L 943 251 L 950 251 L 955 256 L 958 256 L 959 259 L 962 259 L 980 244 L 980 261 L 996 274 L 994 275 L 995 277 L 986 280 L 966 277 L 945 278 L 932 288 L 927 300 L 927 309 L 931 312 L 945 314 L 970 312 L 974 314 L 978 321 L 977 334 L 971 342 L 969 340 L 971 342 L 967 345 L 952 343 L 945 345 L 942 349 L 935 349 L 894 337 L 887 338 L 878 345 L 871 346 L 856 341 L 849 336 L 841 324 L 838 313 L 833 309 L 824 307 L 791 307 L 774 309 L 755 316 L 740 327 L 729 341 L 723 365 L 699 387 L 687 409 L 684 426 L 685 447 L 697 490 L 709 505 L 727 514 L 767 516 L 770 514 L 805 512 L 814 514 L 824 523 L 831 537 L 833 563 L 851 617 L 859 690 L 877 734 L 881 757 L 888 768 L 896 772 L 913 771 L 939 757 L 953 740 L 970 713 L 971 715 L 970 713 L 982 701 L 988 671 L 1012 635 L 1016 624 L 1016 605 L 1012 594 L 1012 575 L 1018 561 L 1039 532 L 1047 517 L 1051 515 L 1050 512 L 1071 478 L 1069 473 L 1058 476 L 1055 475 L 1055 477 L 1040 483 L 1030 482 L 1027 475 L 1004 447 L 998 435 L 998 430 L 997 432 L 994 427 L 995 424 L 994 426 L 978 393 L 978 388 L 976 388 L 968 370 L 960 360 L 962 357 L 969 359 L 970 363 L 972 362 L 977 379 L 990 399 L 997 404 L 1009 426 L 1022 439 L 1027 459 L 1034 466 L 1039 467 L 1060 460 L 1088 441 L 1091 442 L 1110 422 L 1114 406 L 1110 392 L 1096 383 L 1081 381 L 1078 387 L 1074 387 L 1057 377 L 1050 368 L 1049 358 L 1053 358 L 1054 361 L 1064 362 L 1084 376 L 1097 376 L 1119 386 L 1118 389 L 1120 387 L 1151 388 L 1159 391 L 1164 398 L 1176 404 L 1184 404 L 1189 409 L 1189 415 L 1201 450 L 1224 499 L 1227 499 L 1228 495 L 1230 495 L 1230 489 L 1235 481 L 1236 453 L 1238 449 L 1262 427 L 1273 408 L 1276 410 L 1280 407 L 1290 407 L 1307 423 L 1308 428 L 1310 427 L 1322 441 L 1322 445 L 1319 447 L 1322 445 L 1323 447 L 1335 445 L 1335 482 L 1339 491 L 1357 506 L 1356 508 L 1360 513 L 1360 522 L 1358 522 L 1357 526 L 1347 517 L 1334 511 L 1329 512 L 1328 519 L 1333 527 L 1342 533 L 1352 544 L 1371 579 L 1377 584 L 1384 585 L 1390 579 L 1390 562 L 1382 548 L 1383 544 L 1381 547 L 1376 542 L 1370 502 L 1354 482 L 1351 465 L 1355 465 L 1381 489 L 1380 491 L 1392 492 L 1396 488 L 1404 469 L 1406 454 L 1403 444 L 1391 443 L 1384 437 L 1384 425 L 1388 417 L 1393 412 L 1413 412 L 1427 407 L 1447 390 L 1460 366 L 1458 348 L 1461 350 L 1459 345 L 1455 344 L 1450 333 L 1435 320 L 1442 311 L 1441 304 L 1440 306 L 1429 305 L 1421 307 L 1418 305 L 1419 303 L 1418 305 L 1414 296 L 1418 290 L 1432 295 L 1442 294 L 1447 299 L 1447 302 L 1451 301 L 1471 323 L 1478 321 L 1480 323 L 1478 321 L 1480 313 L 1477 305 L 1466 294 L 1466 291 L 1471 285 L 1470 271 L 1488 266 L 1492 246 L 1491 228 L 1487 216 L 1481 207 L 1475 202 L 1461 201 L 1456 204 L 1453 201 L 1445 200 L 1440 193 L 1440 184 L 1444 177 L 1454 168 L 1467 170 L 1481 165 L 1500 170 L 1504 167 L 1502 157 L 1505 152 L 1526 159 L 1530 155 L 1534 165 L 1531 169 L 1531 176 L 1541 201 L 1559 212 L 1567 211 L 1565 210 L 1566 200 L 1563 192 L 1565 191 L 1551 180 L 1549 170 L 1557 166 L 1562 166 L 1563 168 L 1577 166 L 1581 155 L 1587 154 L 1585 153 L 1592 147 L 1592 142 L 1579 134 L 1583 129 L 1609 135 L 1612 133 Z" fill="#2ea7ff"/>
<path d="M 394 70  Z" fill="#2ea7ff"/>
<path d="M 1245 67 L 1247 66 Z" fill="#2ea7ff"/>
<path d="M 528 64  Z" fill="#2ea7ff"/>
<path d="M 455 64  Z" fill="#2ea7ff"/>
<path d="M 740 55  Z" fill="#2ea7ff"/>
<path d="M 590 42  Z" fill="#2ea7ff"/>
<path d="M 737 44 L 710 46 L 679 39 L 657 39 L 599 45 L 544 44 L 503 47 L 462 56 L 459 65 L 467 71 L 462 74 L 457 73 L 458 76 L 452 79 L 448 78 L 452 75 L 452 66 L 448 61 L 411 63 L 400 68 L 393 78 L 393 96 L 396 102 L 396 111 L 397 109 L 399 112 L 389 114 L 374 114 L 372 112 L 372 109 L 380 101 L 383 82 L 381 86 L 377 83 L 369 83 L 360 89 L 352 89 L 346 83 L 338 80 L 309 82 L 296 87 L 290 92 L 291 96 L 298 98 L 298 100 L 271 103 L 234 103 L 179 99 L 124 99 L 109 101 L 101 105 L 96 118 L 84 132 L 72 139 L 46 145 L 39 149 L 32 157 L 29 165 L 31 175 L 40 180 L 53 179 L 80 164 L 90 162 L 131 164 L 137 167 L 148 168 L 157 174 L 161 194 L 160 213 L 153 231 L 123 270 L 124 273 L 119 280 L 117 305 L 120 315 L 156 382 L 168 390 L 179 401 L 179 404 L 183 406 L 189 420 L 202 440 L 223 444 L 245 458 L 245 460 L 271 460 L 275 464 L 284 484 L 309 497 L 311 500 L 319 502 L 335 511 L 331 528 L 319 553 L 317 579 L 339 627 L 368 652 L 378 673 L 387 784 L 401 861 L 407 873 L 417 883 L 434 895 L 435 899 L 436 897 L 455 912 L 458 902 L 450 886 L 450 876 L 456 859 L 458 842 L 451 828 L 442 818 L 440 808 L 447 797 L 451 796 L 454 791 L 466 783 L 481 766 L 492 746 L 494 746 L 500 727 L 504 726 L 513 730 L 518 728 L 524 698 L 541 688 L 551 674 L 560 642 L 574 611 L 572 589 L 559 576 L 548 569 L 539 567 L 536 564 L 517 563 L 510 559 L 510 556 L 500 547 L 499 541 L 479 518 L 472 515 L 472 513 L 470 514 L 455 508 L 436 489 L 426 483 L 398 479 L 387 471 L 375 470 L 362 473 L 345 481 L 336 495 L 320 488 L 304 472 L 295 449 L 278 438 L 279 433 L 291 421 L 292 416 L 288 412 L 279 412 L 251 423 L 245 421 L 240 415 L 237 393 L 240 385 L 256 371 L 283 360 L 301 361 L 321 374 L 330 375 L 334 373 L 337 367 L 338 353 L 346 344 L 359 336 L 371 320 L 373 314 L 392 294 L 401 287 L 404 287 L 406 283 L 429 270 L 459 261 L 451 250 L 453 248 L 451 249 L 448 245 L 448 237 L 457 230 L 495 231 L 493 230 L 508 221 L 511 214 L 511 205 L 506 193 L 483 167 L 485 166 L 480 166 L 466 156 L 446 156 L 429 168 L 423 176 L 422 174 L 423 176 L 408 203 L 399 211 L 394 211 L 389 206 L 389 193 L 387 193 L 386 187 L 364 175 L 356 166 L 368 158 L 379 154 L 383 155 L 386 151 L 393 151 L 395 148 L 433 138 L 437 132 L 436 124 L 426 115 L 418 112 L 420 97 L 426 90 L 428 92 L 426 90 L 434 84 L 433 93 L 440 98 L 467 100 L 469 103 L 474 102 L 480 107 L 482 112 L 473 126 L 474 134 L 478 140 L 476 143 L 479 141 L 494 147 L 510 146 L 515 143 L 512 127 L 526 120 L 526 108 L 521 102 L 523 100 L 520 101 L 520 96 L 513 87 L 495 82 L 494 80 L 496 76 L 499 76 L 502 72 L 513 66 L 536 60 L 537 69 L 541 73 L 568 76 L 573 81 L 573 99 L 581 106 L 580 109 L 581 106 L 583 107 L 575 127 L 575 150 L 580 160 L 587 164 L 595 162 L 614 143 L 660 131 L 697 115 L 700 112 L 699 107 L 701 103 L 722 84 L 728 63 L 732 56 L 739 51 L 740 45 Z" fill="#2ea7ff"/>
</svg>